HIERARCHY
ROOT Hips
{
	OFFSET 0.00000 0.00000 0.00000
	CHANNELS 6 Xposition Yposition Zposition Zrotation Yrotation Xrotation 
	JOINT LHipJoint
	{
		OFFSET 0 0 0
		CHANNELS 3 Zrotation Yrotation Xrotation
		JOINT LeftHip
		{
			OFFSET 1.41261 -1.82971 0.84908
			CHANNELS 3 Zrotation Yrotation Xrotation
			JOINT LeftKnee
			{
				OFFSET 2.52554 -6.93888 0.00000
				CHANNELS 3 Zrotation Yrotation Xrotation
				JOINT LeftAnkle
				{
					OFFSET 2.56654 -7.05152 0.00000
					CHANNELS 3 Zrotation Yrotation Xrotation
					JOINT LeftToe
					{
						OFFSET 0.21698 -0.59616 1.85369
						CHANNELS 3 Zrotation Yrotation Xrotation
						End Site
						{
							OFFSET 0.00000 -0.00000 0.97832
						}
					}
				}
			}
		}
	}
	JOINT RHipJoint
	{
		OFFSET 0 0 0
		CHANNELS 3 Zrotation Yrotation Xrotation
		JOINT RightHip
		{
			OFFSET -1.12808 -1.82971 0.84907
			CHANNELS 3 Zrotation Yrotation Xrotation
			JOINT RightKnee
			{
				OFFSET -2.53425 -6.96280 0.00000
				CHANNELS 3 Zrotation Yrotation Xrotation
				JOINT RightAnkle
				{
					OFFSET -2.58413 -7.09983 0.00000
					CHANNELS 3 Zrotation Yrotation Xrotation
					JOINT RightToe
					{
						OFFSET -0.26437 -0.72636 1.92241
						CHANNELS 3 Zrotation Yrotation Xrotation
						End Site
						{
							OFFSET -0.00000 -0.00000 1.02667
						}
					}
				}
			}
		}
	}
	JOINT lowerback
	{
		OFFSET 0 0 0
		CHANNELS 3 Zrotation Yrotation Xrotation
		JOINT Chest
		{
			OFFSET -0.02096 2.02288 -0.14752
			CHANNELS 3 Zrotation Yrotation Xrotation
			JOINT Chest2
			{
				OFFSET 0.03477 2.03136 -0.02358
				CHANNELS 3 Zrotation Yrotation Xrotation
				JOINT lowerneck
				{
					OFFSET 0 0 0
					CHANNELS 3 Zrotation Yrotation Xrotation
					JOINT Neck
					{
						OFFSET 0.00174 1.74359 0.19336
						CHANNELS 3 Zrotation Yrotation Xrotation
						JOINT Head
						{
							OFFSET -0.03054 1.76140 -0.17751
							CHANNELS 3 Zrotation Yrotation Xrotation
							End Site
							{
								OFFSET -0.00863 1.77239 -0.08120
							}
						}
					}
				}
				JOINT LeftCollar
				{
					OFFSET 0 0 0
					CHANNELS 3 Zrotation Yrotation Xrotation
					JOINT LeftShoulder
					{
						OFFSET 3.68685 1.32687 -0.67367
CHANNELS 3 Zrotation Xrotation Yrotation
						JOINT LeftElbow
						{
OFFSET 0 -4.764680 -0.000000
CHANNELS 3 Zrotation Xrotation Yrotation
							JOINT LeftWrist
							{
OFFSET 0 -3.527120 -0.000000
CHANNELS 3 Zrotation Xrotation Yrotation
								JOINT lhand
								{
									OFFSET 0 0 0
CHANNELS 3 Zrotation Xrotation Yrotation
									JOINT LFingers
									{
OFFSET 0 -0.859560 -0.000000
CHANNELS 3 Zrotation Xrotation Yrotation
										End Site
										{
OFFSET 0 -0.693000 -0.000000
										}
									}
								}
								JOINT LThumb
								{
OFFSET 0 0.000000 0.000000
CHANNELS 3 Zrotation Xrotation Yrotation
									End Site
									{
OFFSET 0 -0.703580 0.703580
									}
								}
							}
						}
					}
				}
				JOINT RightCollar
				{
					OFFSET 0 0 0
					CHANNELS 3 Zrotation Yrotation Xrotation
					JOINT RightShoulder
					{
						OFFSET -3.31304 1.28268 -0.97357
CHANNELS 3 Zrotation Xrotation Yrotation
						JOINT RightElbow
						{
OFFSET 0 -4.905770 -0.000000
CHANNELS 3 Zrotation Xrotation Yrotation
							JOINT RightWrist
							{
OFFSET 0 -3.426920 0.000000
CHANNELS 3 Zrotation Xrotation Yrotation
								JOINT rhand
								{
									OFFSET 0 0 0
CHANNELS 3 Zrotation Xrotation Yrotation
									JOINT RFingers
									{
OFFSET 0 -0.740960 -0.000000
CHANNELS 3 Zrotation Xrotation Yrotation
										End Site
										{
OFFSET 0 -0.597380 -0.000000
										}
									}
								}
								JOINT RThumb
								{
OFFSET 0 0.000000 0.000000
CHANNELS 3 Zrotation Xrotation Yrotation
									End Site
									{
OFFSET 0 -0.606500 0.606500
									}
								}
							}
						}
					}
				}
			}
		}
	}
}
MOTION
Frames: 8
Frame Time: 0.008333333333333333
0.314500 18.059500 -37.530300 -0.730500 1.140400 3.811200 0.000000 0.000000 0.000000 -13.693700 -0.155100 6.799300 0.073600 1.750200 4.815900 0.666700 1.818400 -16.186800 0.509600 -4.576000 -12.703000 0.000000 0.000000 0.000000 12.511200 -2.680500 -1.021800 -0.579500 -4.874700 13.551500 -0.543700 -4.552500 -16.337000 -0.000400 0.132700 -0.364500 -4.463400 -0.765800 2.944400 1.758500 -1.167500 -1.944600 4.398300 -0.449100 -3.538700 -6.025100 -0.127600 -14.279900 -7.484200 2.395000 14.193600 -1.199000 0.167900 6.766500 -0.000000 -0.000000 0.000000 2.450400 8.484600 -10.542400 16.378600 -26.031300 3.810600 -16.758900 35.011400 19.693900 0.000000 0.000000 0.000000 -7.125000 0.000000 0.000000 -27.923200 10.934400 -25.441300 -0.000000 -0.000000 0.000000 -0.302800 0.520100 0.809000 -10.458100 -17.452900 -1.609600 -4.790900 12.750200 36.113900 0.000000 0.000000 0.000000 7.125000 0.000000 -0.000000 35.104800 62.727400 -16.144100
0.316575 18.060754 -37.532761 -0.836933 1.090127 3.832236 0.000000 0.000000 0.000000 -13.564639 -0.133485 6.749171 0.074613 1.762407 4.849528 0.668726 1.819317 -16.210682 0.507622 -4.567123 -12.677912 0.000000 0.000000 0.000000 12.643108 -2.619902 -1.086355 -0.585434 -4.899065 13.620928 -0.548187 -4.568952 -16.402085 -0.000255 0.106598 -0.292805 -4.342445 -0.784761 2.978511 1.780887 -1.188102 -1.963802 4.355408 -0.460679 -3.577249 -6.041166 -0.136091 -14.259250 -7.483766 2.390803 14.262352 -1.197118 0.161917 6.785220 0.000000 0.000000 0.000000 2.637406 8.317906 -10.817457 16.270285 -25.885546 3.763318 -16.621541 34.942696 19.728155 0.000000 0.000000 0.000000 -7.125000 0.000000 0.000000 -27.843834 10.911290 -25.360969 0.000000 0.000000 0.000000 -0.309362 0.533899 1.114838 -10.535537 -17.572746 -1.633000 -4.763013 12.486433 36.081140 0.000000 0.000000 0.000000 7.125000 0.000000 0.000000 35.094186 62.693820 -16.110906
0.318649 18.062009 -37.535221 -0.943366 1.039853 3.853271 0.000000 0.000000 0.000000 -13.435578 -0.111871 6.699043 0.075626 1.774613 4.883156 0.670753 1.820233 -16.234565 0.505644 -4.558245 -12.652823 0.000000 0.000000 0.000000 12.775015 -2.559303 -1.150909 -0.591369 -4.923430 13.690355 -0.552674 -4.585405 -16.467171 -0.000111 0.080497 -0.221110 -4.221489 -0.803722 3.012621 1.803273 -1.208703 -1.983005 4.312517 -0.472259 -3.615799 -6.057233 -0.144583 -14.238601 -7.483332 2.386605 14.331104 -1.195237 0.155935 6.803940 0.000000 0.000000 0.000000 2.824411 8.151213 -11.092513 16.161971 -25.739791 3.716036 -16.484181 34.873992 19.762411 0.000000 0.000000 0.000000 -7.125000 0.000000 0.000000 -27.764467 10.888179 -25.280637 0.000000 0.000000 0.000000 -0.315923 0.547697 1.420676 -10.612973 -17.692591 -1.656400 -4.735126 12.222666 36.048380 0.000000 0.000000 0.000000 7.125000 0.000000 0.000000 35.083571 62.660240 -16.077712
0.319516 18.060668 -37.536071 -1.001121 0.990340 3.821423 0.000000 0.000000 0.000000 -13.359983 -0.066454 6.731014 0.075432 1.772279 4.876652 0.670318 1.836675 -16.237597 0.500668 -4.536169 -12.590241 0.000000 0.000000 0.000000 12.857439 -2.487878 -1.114125 -0.593769 -4.933209 13.718263 -0.555550 -4.636710 -16.536462 -0.000055 0.056632 -0.155499 -4.147512 -0.825234 3.060378 1.797070 -1.235881 -1.971917 4.266583 -0.487596 -3.629785 -6.038132 -0.146184 -14.221172 -7.487774 2.384734 14.393637 -1.200335 0.152905 6.821362 0.000000 0.000000 0.000000 3.052489 7.970112 -11.401707 16.049495 -25.587505 3.667456 -16.444402 34.834818 19.750225 0.000000 0.000000 0.000000 -7.125000 0.000000 0.000000 -27.744830 10.901667 -25.248134 0.000000 0.000000 0.000000 -0.281770 0.535278 1.718327 -10.707725 -17.838745 -1.685437 -4.706479 11.884898 36.009402 0.000000 0.000000 0.000000 7.125000 0.000000 0.000000 35.066559 62.621425 -16.036957
0.320288 18.059124 -37.536795 -1.055061 0.940887 3.785431 0.000000 0.000000 0.000000 -13.288577 -0.019171 6.769419 0.075142 1.768805 4.867002 0.669691 1.854334 -16.238997 0.495457 -4.513059 -12.524722 0.000000 0.000000 0.000000 12.935985 -2.415604 -1.069400 -0.595891 -4.941845 13.742917 -0.558300 -4.690747 -16.606082 -0.000007 0.032943 -0.090366 -4.077216 -0.846945 3.109204 1.788627 -1.263575 -1.958456 4.220410 -0.503228 -3.641847 -6.016276 -0.147246 -14.203996 -7.492599 2.383045 14.455683 -1.205980 0.150107 6.838683 0.000000 0.000000 0.000000 3.283786 7.787883 -11.713576 15.936693 -25.434706 3.618775 -16.412270 34.797957 19.734400 0.000000 0.000000 0.000000 -7.125000 0.000000 0.000000 -27.729874 10.918023 -25.219379 0.000000 0.000000 0.000000 -0.244427 0.520804 2.015336 -10.803833 -17.986960 -1.714916 -4.677772 11.541330 35.969936 0.000000 0.000000 0.000000 7.125000 0.000000 0.000000 35.049045 62.582201 -15.995609
0.322091 18.057292 -37.536611 -1.047643 0.886485 3.733893 0.000000 0.000000 0.000000 -13.307065 0.025884 6.827616 0.075018 1.767063 4.862219 0.670095 1.885682 -16.258787 0.492721 -4.500628 -12.489593 0.000000 0.000000 0.000000 12.924762 -2.377637 -0.989171 -0.594221 -4.935100 13.723656 -0.564597 -4.733403 -16.710052 -0.000041 -0.006086 0.016745 -4.081474 -0.872120 3.140753 1.774493 -1.298774 -1.920996 4.210195 -0.522200 -3.617292 -5.984153 -0.133916 -14.205500 -7.519278 2.399624 14.465360 -1.218181 0.156834 6.842932 0.000000 0.000000 0.000000 3.399087 7.611633 -11.840340 15.886157 -25.366028 3.597061 -16.368220 34.731737 19.589962 0.000000 0.000000 0.000000 -7.125000 0.000000 0.000000 -27.727865 11.052972 -25.128152 0.000000 0.000000 0.000000 -0.214135 0.480269 2.333499 -10.910497 -18.150762 -1.748106 -4.581521 11.161187 35.972365 0.000000 0.000000 0.000000 7.125000 0.000000 0.000000 35.148228 62.559387 -16.028073
0.324069 18.055410 -37.536274 -1.029791 0.831243 3.679711 0.000000 0.000000 0.000000 -13.340838 0.070561 6.889180 0.074921 1.765616 4.858262 0.670674 1.919359 -16.281704 0.490405 -4.490014 -12.459631 0.000000 0.000000 0.000000 12.898274 -2.345505 -0.902905 -0.591905 -4.925740 13.696927 -0.571496 -4.774123 -16.819862 -0.000089 -0.047723 0.130994 -4.098408 -0.897884 3.169363 1.759392 -1.335249 -1.879456 4.206094 -0.541740 -3.586510 -5.950283 -0.118139 -14.210180 -7.549674 2.419309 14.466132 -1.231497 0.165180 6.844958 0.000000 0.000000 0.000000 3.494665 7.436400 -11.935628 15.846209 -25.311653 3.579934 -16.322144 34.660524 19.423654 0.000000 0.000000 0.000000 -7.125000 0.000000 0.000000 -27.728058 11.208086 -25.026303 0.000000 0.000000 0.000000 -0.185042 0.435302 2.655259 -11.018957 -18.317215 -1.781927 -4.473786 10.774824 35.981918 0.000000 0.000000 0.000000 7.125000 0.000000 0.000000 35.267253 62.539365 -16.073087
0.326877 18.054774 -37.536766 -1.012091 0.776075 3.655789 0.000000 0.000000 0.000000 -13.376044 0.116898 6.884150 0.076447 1.783335 4.907203 0.674799 1.918928 -16.328353 0.490843 -4.492001 -12.465173 0.000000 0.000000 0.000000 12.857713 -2.351290 -0.880780 -0.591098 -4.922455 13.687553 -0.578018 -4.753458 -16.881567 -0.000100 -0.064648 0.177519 -4.121304 -0.921120 3.183448 1.755987 -1.367951 -1.870589 4.217575 -0.557847 -3.581536 -5.947352 -0.118058 -14.193241 -7.560752 2.420091 14.481165 -1.235570 0.164246 6.847136 0.000000 0.000000 0.000000 3.484939 7.348623 -11.846192 15.879568 -25.357036 3.594235 -16.317344 34.701896 19.172492 0.000000 0.000000 0.000000 -7.125000 0.000000 0.000000 -27.764056 11.438433 -24.916039 0.000000 0.000000 0.000000 -0.169984 0.440479 2.968944 -11.113418 -18.461746 -1.811787 -4.344733 10.475768 36.018787 0.000000 0.000000 0.000000 7.125000 0.000000 0.000000 35.439440 62.535717 -16.159340
